# xmcd
#
# Track frame offsets:
#	150
#	19877
#	33591
#	47252
#	56767
#	74591
#	95149
#	108251
#	119682
#
# Disc length: 1804 seconds
#
# Revision: 0
# Processed by: cddbd v1.5.1PL0 Copyright (c) Steve Scherf et al.
# Submitted via: dBpowerAMP V4.0
#
DISCID=80070a09
DTITLE=Lenn - Chameleon
DYEAR=1900
DGENRE=Blues
TTITLE0=Wings
TTITLE1=Tonight
TTITLE2=It's a wonderful day
TTITLE3=Playing guitar
TTITLE4=Monday afternoon
TTITLE5=Nobody told me
TTITLE6=Johnny D
TTITLE7=With the track ahead
TTITLE8=Born to be wild
EXTD=
EXTT0=
EXTT1=
EXTT2=
EXTT3=
EXTT4=
EXTT5=
EXTT6=
EXTT7=
EXTT8=
PLAYORDER=
